<mxfile host="app.diagrams.net" modified="2023-08-08T18:59:40.016Z" agent="Mozilla/5.0 (Windows NT 10.0; Win64; x64) AppleWebKit/537.36 (KHTML, like Gecko) Chrome/115.0.0.0 Safari/537.36" etag="SfQO0MXNVDUBcjEkiBgK" version="21.6.6" type="github" pages="2">
  <diagram name="Prospect NETSales" id="nftzNEsQ4DKYTYbzkJBY">
    <mxGraphModel dx="1050" dy="542" grid="1" gridSize="10" guides="1" tooltips="1" connect="1" arrows="1" fold="1" page="1" pageScale="1" pageWidth="827" pageHeight="1169" math="0" shadow="0">
      <root>
        <mxCell id="0" />
        <mxCell id="1" parent="0" />
        <mxCell id="BzSE3qXNDW1A7PbjzAHN-1" value="Venda Prospect NETSales - Combo Multi" style="whiteSpace=wrap;html=1;aspect=fixed;" parent="1" vertex="1">
          <mxGeometry x="100" y="17.5" width="80" height="80" as="geometry" />
        </mxCell>
        <mxCell id="BzSE3qXNDW1A7PbjzAHN-2" value="" style="edgeStyle=orthogonalEdgeStyle;rounded=0;orthogonalLoop=1;jettySize=auto;html=1;" parent="1" source="BzSE3qXNDW1A7PbjzAHN-3" target="BzSE3qXNDW1A7PbjzAHN-35" edge="1">
          <mxGeometry relative="1" as="geometry" />
        </mxCell>
        <mxCell id="BzSE3qXNDW1A7PbjzAHN-3" value="" style="strokeWidth=2;html=1;shape=mxgraph.flowchart.decision;whiteSpace=wrap;" parent="1" vertex="1">
          <mxGeometry x="340" y="42.5" width="40" height="30" as="geometry" />
        </mxCell>
        <mxCell id="BzSE3qXNDW1A7PbjzAHN-4" value="Verificação elegibilidade 5G SA" style="whiteSpace=wrap;html=1;aspect=fixed;fillColor=#f8cecc;strokeColor=#b85450;" parent="1" vertex="1">
          <mxGeometry x="210" y="17.5" width="80" height="80" as="geometry" />
        </mxCell>
        <UserObject label="Sim" placeholders="1" name="Variable" id="BzSE3qXNDW1A7PbjzAHN-5">
          <mxCell style="text;html=1;strokeColor=none;fillColor=none;align=center;verticalAlign=middle;whiteSpace=wrap;overflow=hidden;" parent="1" vertex="1">
            <mxGeometry x="380" y="30" width="40" height="20" as="geometry" />
          </mxCell>
        </UserObject>
        <mxCell id="BzSE3qXNDW1A7PbjzAHN-6" value="Cliente Presencial&lt;br&gt;/Televendas" style="shape=umlActor;verticalLabelPosition=bottom;verticalAlign=top;html=1;" parent="1" vertex="1">
          <mxGeometry x="34" y="25" width="30" height="65" as="geometry" />
        </mxCell>
        <mxCell id="BzSE3qXNDW1A7PbjzAHN-7" value="" style="edgeStyle=elbowEdgeStyle;elbow=horizontal;endArrow=classic;html=1;curved=0;rounded=0;endSize=8;startSize=8;entryX=0;entryY=0.5;entryDx=0;entryDy=0;" parent="1" source="BzSE3qXNDW1A7PbjzAHN-6" target="BzSE3qXNDW1A7PbjzAHN-1" edge="1">
          <mxGeometry width="50" height="50" relative="1" as="geometry">
            <mxPoint x="390" y="310" as="sourcePoint" />
            <mxPoint x="440" y="260" as="targetPoint" />
          </mxGeometry>
        </mxCell>
        <mxCell id="BzSE3qXNDW1A7PbjzAHN-8" value="" style="edgeStyle=elbowEdgeStyle;elbow=horizontal;endArrow=classic;html=1;curved=0;rounded=0;endSize=8;startSize=8;entryX=0;entryY=0.5;entryDx=0;entryDy=0;exitX=1;exitY=0.5;exitDx=0;exitDy=0;" parent="1" source="BzSE3qXNDW1A7PbjzAHN-1" target="BzSE3qXNDW1A7PbjzAHN-4" edge="1">
          <mxGeometry width="50" height="50" relative="1" as="geometry">
            <mxPoint x="60" y="68" as="sourcePoint" />
            <mxPoint x="100" y="68" as="targetPoint" />
          </mxGeometry>
        </mxCell>
        <mxCell id="BzSE3qXNDW1A7PbjzAHN-9" value="&lt;h1&gt;Regra elegibilidade&lt;/h1&gt;&lt;p&gt;- Plano Portfólio Elegível 5G SA&amp;nbsp; (mandatório)&lt;/p&gt;&lt;p&gt;- Plano SVA elegível (Ex.: Cloud Gaming) ou&amp;nbsp;&lt;span style=&quot;background-color: initial;&quot;&gt;Aparelho 5G&lt;/span&gt;&lt;/p&gt;&lt;div&gt;&lt;br&gt;&lt;/div&gt;" style="text;html=1;strokeColor=none;fillColor=none;spacing=5;spacingTop=-20;whiteSpace=wrap;overflow=hidden;rounded=0;" parent="1" vertex="1">
          <mxGeometry x="10" y="140" width="300" height="120" as="geometry" />
        </mxCell>
        <mxCell id="BzSE3qXNDW1A7PbjzAHN-10" value="" style="edgeStyle=elbowEdgeStyle;elbow=horizontal;endArrow=classic;html=1;curved=0;rounded=0;endSize=8;startSize=8;entryX=0;entryY=0.5;entryDx=0;entryDy=0;exitX=1;exitY=0.5;exitDx=0;exitDy=0;entryPerimeter=0;" parent="1" source="BzSE3qXNDW1A7PbjzAHN-4" target="BzSE3qXNDW1A7PbjzAHN-3" edge="1">
          <mxGeometry width="50" height="50" relative="1" as="geometry">
            <mxPoint x="180" y="68" as="sourcePoint" />
            <mxPoint x="220" y="68" as="targetPoint" />
          </mxGeometry>
        </mxCell>
        <mxCell id="BzSE3qXNDW1A7PbjzAHN-11" value="" style="edgeStyle=elbowEdgeStyle;elbow=horizontal;endArrow=classic;html=1;curved=0;rounded=0;endSize=8;startSize=8;exitX=1;exitY=0.5;exitDx=0;exitDy=0;exitPerimeter=0;entryX=0;entryY=0.5;entryDx=0;entryDy=0;" parent="1" source="BzSE3qXNDW1A7PbjzAHN-3" target="BzSE3qXNDW1A7PbjzAHN-12" edge="1">
          <mxGeometry width="50" height="50" relative="1" as="geometry">
            <mxPoint x="190" y="78" as="sourcePoint" />
            <mxPoint x="440" y="58" as="targetPoint" />
          </mxGeometry>
        </mxCell>
        <mxCell id="BzSE3qXNDW1A7PbjzAHN-12" value="Pop-up em tela orientando vendedor a vender 5G SA" style="whiteSpace=wrap;html=1;aspect=fixed;fillColor=#f8cecc;strokeColor=#b85450;" parent="1" vertex="1">
          <mxGeometry x="450" y="17.5" width="80" height="80" as="geometry" />
        </mxCell>
        <mxCell id="BzSE3qXNDW1A7PbjzAHN-13" value="" style="strokeWidth=2;html=1;shape=mxgraph.flowchart.decision;whiteSpace=wrap;fillColor=#f8cecc;strokeColor=#b85450;" parent="1" vertex="1">
          <mxGeometry x="600" y="42.5" width="40" height="30" as="geometry" />
        </mxCell>
        <UserObject label="Vendedor seleciona Chip" placeholders="1" name="Variable" id="BzSE3qXNDW1A7PbjzAHN-14">
          <mxCell style="text;html=1;strokeColor=none;fillColor=none;align=center;verticalAlign=middle;whiteSpace=wrap;overflow=hidden;" parent="1" vertex="1">
            <mxGeometry x="545" y="17.5" width="150" height="20" as="geometry" />
          </mxCell>
        </UserObject>
        <mxCell id="BzSE3qXNDW1A7PbjzAHN-15" value="" style="ellipse;html=1;shape=endState;fillColor=#000000;strokeColor=#ff0000;" parent="1" vertex="1">
          <mxGeometry x="730" y="42.5" width="30" height="30" as="geometry" />
        </mxCell>
        <UserObject label="As-Is" placeholders="1" name="Variable" id="BzSE3qXNDW1A7PbjzAHN-16">
          <mxCell style="text;html=1;strokeColor=none;fillColor=none;align=center;verticalAlign=middle;whiteSpace=wrap;overflow=hidden;" parent="1" vertex="1">
            <mxGeometry x="727.5" y="17.5" width="35" height="20" as="geometry" />
          </mxCell>
        </UserObject>
        <UserObject label="4G" placeholders="1" name="Variable" id="BzSE3qXNDW1A7PbjzAHN-17">
          <mxCell style="text;html=1;strokeColor=none;fillColor=none;align=center;verticalAlign=middle;whiteSpace=wrap;overflow=hidden;" parent="1" vertex="1">
            <mxGeometry x="670" y="60" width="40" height="20" as="geometry" />
          </mxCell>
        </UserObject>
        <mxCell id="BzSE3qXNDW1A7PbjzAHN-18" value="" style="edgeStyle=elbowEdgeStyle;elbow=horizontal;endArrow=classic;html=1;curved=0;rounded=0;endSize=8;startSize=8;exitX=1;exitY=0.5;exitDx=0;exitDy=0;entryX=0;entryY=0.5;entryDx=0;entryDy=0;entryPerimeter=0;" parent="1" source="BzSE3qXNDW1A7PbjzAHN-12" target="BzSE3qXNDW1A7PbjzAHN-13" edge="1">
          <mxGeometry width="50" height="50" relative="1" as="geometry">
            <mxPoint x="390" y="68" as="sourcePoint" />
            <mxPoint x="460" y="68" as="targetPoint" />
          </mxGeometry>
        </mxCell>
        <mxCell id="BzSE3qXNDW1A7PbjzAHN-19" value="" style="edgeStyle=elbowEdgeStyle;elbow=horizontal;endArrow=classic;html=1;curved=0;rounded=0;endSize=8;startSize=8;exitX=1;exitY=0.5;exitDx=0;exitDy=0;entryX=0;entryY=0.5;entryDx=0;entryDy=0;exitPerimeter=0;" parent="1" source="BzSE3qXNDW1A7PbjzAHN-13" target="BzSE3qXNDW1A7PbjzAHN-15" edge="1">
          <mxGeometry width="50" height="50" relative="1" as="geometry">
            <mxPoint x="540" y="68" as="sourcePoint" />
            <mxPoint x="610" y="68" as="targetPoint" />
          </mxGeometry>
        </mxCell>
        <mxCell id="BzSE3qXNDW1A7PbjzAHN-20" value="Titular e todos dependentes recebem chip 5G" style="whiteSpace=wrap;html=1;aspect=fixed;" parent="1" vertex="1">
          <mxGeometry x="580" y="130" width="80" height="80" as="geometry" />
        </mxCell>
        <mxCell id="BzSE3qXNDW1A7PbjzAHN-21" value="" style="edgeStyle=elbowEdgeStyle;elbow=horizontal;endArrow=classic;html=1;curved=0;rounded=0;endSize=8;startSize=8;exitX=0.5;exitY=1;exitDx=0;exitDy=0;entryX=0.5;entryY=0;entryDx=0;entryDy=0;exitPerimeter=0;" parent="1" source="BzSE3qXNDW1A7PbjzAHN-13" target="BzSE3qXNDW1A7PbjzAHN-20" edge="1">
          <mxGeometry width="50" height="50" relative="1" as="geometry">
            <mxPoint x="540" y="68" as="sourcePoint" />
            <mxPoint x="610" y="68" as="targetPoint" />
          </mxGeometry>
        </mxCell>
        <UserObject label="5G" placeholders="1" name="Variable" id="BzSE3qXNDW1A7PbjzAHN-22">
          <mxCell style="text;html=1;strokeColor=none;fillColor=none;align=center;verticalAlign=middle;whiteSpace=wrap;overflow=hidden;" parent="1" vertex="1">
            <mxGeometry x="580" y="90" width="40" height="20" as="geometry" />
          </mxCell>
        </UserObject>
        <mxCell id="BzSE3qXNDW1A7PbjzAHN-23" value="" style="edgeStyle=orthogonalEdgeStyle;rounded=0;orthogonalLoop=1;jettySize=auto;html=1;" parent="1" source="BzSE3qXNDW1A7PbjzAHN-24" target="BzSE3qXNDW1A7PbjzAHN-26" edge="1">
          <mxGeometry relative="1" as="geometry" />
        </mxCell>
        <mxCell id="BzSE3qXNDW1A7PbjzAHN-24" value="" style="strokeWidth=2;html=1;shape=mxgraph.flowchart.decision;whiteSpace=wrap;" parent="1" vertex="1">
          <mxGeometry x="600" y="304" width="40" height="30" as="geometry" />
        </mxCell>
        <mxCell id="BzSE3qXNDW1A7PbjzAHN-25" value="" style="edgeStyle=elbowEdgeStyle;elbow=horizontal;endArrow=classic;html=1;curved=0;rounded=0;endSize=8;startSize=8;exitX=0.5;exitY=1;exitDx=0;exitDy=0;entryX=0.5;entryY=0;entryDx=0;entryDy=0;entryPerimeter=0;" parent="1" source="BzSE3qXNDW1A7PbjzAHN-20" target="BzSE3qXNDW1A7PbjzAHN-24" edge="1">
          <mxGeometry width="50" height="50" relative="1" as="geometry">
            <mxPoint x="540" y="68" as="sourcePoint" />
            <mxPoint x="610" y="68" as="targetPoint" />
          </mxGeometry>
        </mxCell>
        <mxCell id="BzSE3qXNDW1A7PbjzAHN-26" value="Abertura de OS (logística)" style="whiteSpace=wrap;html=1;aspect=fixed;" parent="1" vertex="1">
          <mxGeometry x="710" y="279" width="80" height="80" as="geometry" />
        </mxCell>
        <mxCell id="BzSE3qXNDW1A7PbjzAHN-27" value="Entrega chip presencial" style="whiteSpace=wrap;html=1;aspect=fixed;" parent="1" vertex="1">
          <mxGeometry x="450" y="279" width="80" height="80" as="geometry" />
        </mxCell>
        <mxCell id="BzSE3qXNDW1A7PbjzAHN-28" value="" style="edgeStyle=elbowEdgeStyle;elbow=horizontal;endArrow=classic;html=1;curved=0;rounded=0;endSize=8;startSize=8;exitX=0;exitY=0.5;exitDx=0;exitDy=0;entryX=1;entryY=0.5;entryDx=0;entryDy=0;exitPerimeter=0;" parent="1" source="BzSE3qXNDW1A7PbjzAHN-24" target="BzSE3qXNDW1A7PbjzAHN-27" edge="1">
          <mxGeometry width="50" height="50" relative="1" as="geometry">
            <mxPoint x="540" y="112" as="sourcePoint" />
            <mxPoint x="610" y="112" as="targetPoint" />
          </mxGeometry>
        </mxCell>
        <UserObject label="Presencial" placeholders="1" name="Variable" id="BzSE3qXNDW1A7PbjzAHN-29">
          <mxCell style="text;html=1;strokeColor=none;fillColor=none;align=center;verticalAlign=middle;whiteSpace=wrap;overflow=hidden;" parent="1" vertex="1">
            <mxGeometry x="540" y="294" width="60" height="20" as="geometry" />
          </mxCell>
        </UserObject>
        <UserObject label="Remoto" placeholders="1" name="Variable" id="BzSE3qXNDW1A7PbjzAHN-30">
          <mxCell style="text;html=1;strokeColor=none;fillColor=none;align=center;verticalAlign=middle;whiteSpace=wrap;overflow=hidden;" parent="1" vertex="1">
            <mxGeometry x="640" y="294" width="60" height="20" as="geometry" />
          </mxCell>
        </UserObject>
        <mxCell id="BzSE3qXNDW1A7PbjzAHN-31" value="&lt;p style=&quot;line-height: normal; margin: 0pt 0in; text-indent: 0in; direction: ltr; unicode-bidi: embed; word-break: normal;&quot;&gt;Ativa plano com oferta serviço 5G + chip 5G&lt;/p&gt;" style="whiteSpace=wrap;html=1;aspect=fixed;fillColor=#f8cecc;strokeColor=#b85450;" parent="1" vertex="1">
          <mxGeometry x="580" y="370" width="80" height="80" as="geometry" />
        </mxCell>
        <mxCell id="BzSE3qXNDW1A7PbjzAHN-32" value="" style="edgeStyle=elbowEdgeStyle;elbow=horizontal;endArrow=classic;html=1;curved=0;rounded=0;endSize=8;startSize=8;exitX=0.5;exitY=1;exitDx=0;exitDy=0;entryX=0;entryY=0.5;entryDx=0;entryDy=0;" parent="1" source="BzSE3qXNDW1A7PbjzAHN-27" target="BzSE3qXNDW1A7PbjzAHN-31" edge="1">
          <mxGeometry width="50" height="50" relative="1" as="geometry">
            <mxPoint x="390" y="112" as="sourcePoint" />
            <mxPoint x="460" y="112" as="targetPoint" />
            <Array as="points">
              <mxPoint x="490" y="424" />
            </Array>
          </mxGeometry>
        </mxCell>
        <mxCell id="BzSE3qXNDW1A7PbjzAHN-33" value="" style="edgeStyle=elbowEdgeStyle;elbow=horizontal;endArrow=classic;html=1;curved=0;rounded=0;endSize=8;startSize=8;exitX=0.5;exitY=1;exitDx=0;exitDy=0;entryX=1;entryY=0.5;entryDx=0;entryDy=0;" parent="1" source="BzSE3qXNDW1A7PbjzAHN-26" target="BzSE3qXNDW1A7PbjzAHN-31" edge="1">
          <mxGeometry width="50" height="50" relative="1" as="geometry">
            <mxPoint x="500" y="369" as="sourcePoint" />
            <mxPoint x="590" y="464" as="targetPoint" />
            <Array as="points">
              <mxPoint x="750" y="404" />
            </Array>
          </mxGeometry>
        </mxCell>
        <mxCell id="BzSE3qXNDW1A7PbjzAHN-34" value="" style="edgeStyle=orthogonalEdgeStyle;rounded=0;orthogonalLoop=1;jettySize=auto;html=1;" parent="1" source="BzSE3qXNDW1A7PbjzAHN-35" target="BzSE3qXNDW1A7PbjzAHN-39" edge="1">
          <mxGeometry relative="1" as="geometry" />
        </mxCell>
        <mxCell id="BzSE3qXNDW1A7PbjzAHN-35" value="Cliente não elegível solicita chip 5G SA" style="whiteSpace=wrap;html=1;aspect=fixed;" parent="1" vertex="1">
          <mxGeometry x="320" y="130" width="80" height="80" as="geometry" />
        </mxCell>
        <UserObject label="Não" placeholders="1" name="Variable" id="BzSE3qXNDW1A7PbjzAHN-36">
          <mxCell style="text;html=1;strokeColor=none;fillColor=none;align=center;verticalAlign=middle;whiteSpace=wrap;overflow=hidden;" parent="1" vertex="1">
            <mxGeometry x="360" y="80" width="40" height="20" as="geometry" />
          </mxCell>
        </UserObject>
        <mxCell id="BzSE3qXNDW1A7PbjzAHN-37" value="" style="edgeStyle=orthogonalEdgeStyle;rounded=0;orthogonalLoop=1;jettySize=auto;html=1;" parent="1" source="BzSE3qXNDW1A7PbjzAHN-39" target="BzSE3qXNDW1A7PbjzAHN-20" edge="1">
          <mxGeometry relative="1" as="geometry" />
        </mxCell>
        <mxCell id="BzSE3qXNDW1A7PbjzAHN-38" value="" style="edgeStyle=orthogonalEdgeStyle;rounded=0;orthogonalLoop=1;jettySize=auto;html=1;" parent="1" source="BzSE3qXNDW1A7PbjzAHN-39" target="BzSE3qXNDW1A7PbjzAHN-41" edge="1">
          <mxGeometry relative="1" as="geometry" />
        </mxCell>
        <mxCell id="BzSE3qXNDW1A7PbjzAHN-39" value="" style="strokeWidth=2;html=1;shape=mxgraph.flowchart.decision;whiteSpace=wrap;fillColor=#f8cecc;strokeColor=#b85450;" parent="1" vertex="1">
          <mxGeometry x="470" y="155" width="40" height="30" as="geometry" />
        </mxCell>
        <UserObject label="Sim (5G)" placeholders="1" name="Variable" id="BzSE3qXNDW1A7PbjzAHN-40">
          <mxCell style="text;html=1;strokeColor=none;fillColor=none;align=center;verticalAlign=middle;whiteSpace=wrap;overflow=hidden;" parent="1" vertex="1">
            <mxGeometry x="510" y="150" width="50" height="20" as="geometry" />
          </mxCell>
        </UserObject>
        <mxCell id="BzSE3qXNDW1A7PbjzAHN-41" value="" style="ellipse;html=1;shape=endState;fillColor=#000000;strokeColor=#ff0000;" parent="1" vertex="1">
          <mxGeometry x="475" y="220" width="30" height="30" as="geometry" />
        </mxCell>
        <UserObject label="As-Is" placeholders="1" name="Variable" id="BzSE3qXNDW1A7PbjzAHN-42">
          <mxCell style="text;html=1;strokeColor=none;fillColor=none;align=center;verticalAlign=middle;whiteSpace=wrap;overflow=hidden;" parent="1" vertex="1">
            <mxGeometry x="472.5" y="250" width="35" height="20" as="geometry" />
          </mxCell>
        </UserObject>
        <UserObject label="Não (4G)" placeholders="1" name="Variable" id="BzSE3qXNDW1A7PbjzAHN-43">
          <mxCell style="text;html=1;strokeColor=none;fillColor=none;align=center;verticalAlign=middle;whiteSpace=wrap;overflow=hidden;" parent="1" vertex="1">
            <mxGeometry x="430" y="190" width="60" height="20" as="geometry" />
          </mxCell>
        </UserObject>
        <mxCell id="BzSE3qXNDW1A7PbjzAHN-44" value="&lt;h1&gt;Desenvolvimento&lt;/h1&gt;&lt;p style=&quot;border-color: var(--border-color);&quot;&gt;Nova regra pra identificar marcação de 5G SA no produto SVA (elegibilidade).&lt;/p&gt;&lt;p style=&quot;border-color: var(--border-color);&quot;&gt;- Novo Pop-up com mensagem de orientação ao vendedor&lt;/p&gt;&lt;p style=&quot;border-color: var(--border-color);&quot;&gt;- Novo campo de seleção de chip 4G/5G na jornada para planos móveis (híbrido). Impacto na API Prospect Solar.&lt;/p&gt;&lt;p style=&quot;border-color: var(--border-color);&quot;&gt;- Novo campo na interface com ativação simplificada - Informar a tecnologia selecionada.&lt;/p&gt;&lt;p style=&quot;border-color: var(--border-color);&quot;&gt;- Alterar interface SOA ao carregar dados da móvel para início da jornada residencial.&lt;/p&gt;&lt;p style=&quot;border-color: var(--border-color);&quot;&gt;&lt;span style=&quot;background-color: initial;&quot;&gt;- Jornada Prospect deve fornecer mesmo tipo de chip para titular e dependente&lt;/span&gt;&lt;br&gt;&lt;/p&gt;&lt;p&gt;&lt;br&gt;&lt;/p&gt;&lt;div&gt;&lt;br&gt;&lt;/div&gt;" style="text;html=1;strokeColor=none;fillColor=none;spacing=5;spacingTop=-20;whiteSpace=wrap;overflow=hidden;rounded=0;" parent="1" vertex="1">
          <mxGeometry x="10" y="255" width="470" height="270" as="geometry" />
        </mxCell>
        <UserObject label="Vendedor seleciona Chip" placeholders="1" name="Variable" id="BzSE3qXNDW1A7PbjzAHN-45">
          <mxCell style="text;html=1;strokeColor=none;fillColor=none;align=center;verticalAlign=middle;whiteSpace=wrap;overflow=hidden;" parent="1" vertex="1">
            <mxGeometry x="415" y="130" width="150" height="20" as="geometry" />
          </mxCell>
        </UserObject>
      </root>
    </mxGraphModel>
  </diagram>
  <diagram id="bxYEZb4xgfX0n4JsM8yp" name="Venda Base NETSales">
    <mxGraphModel dx="1050" dy="542" grid="1" gridSize="10" guides="1" tooltips="1" connect="1" arrows="1" fold="1" page="1" pageScale="1" pageWidth="827" pageHeight="1169" math="0" shadow="0">
      <root>
        <mxCell id="0" />
        <mxCell id="1" parent="0" />
        <mxCell id="xgCM8T2wfnTooxRTCJ_P-1" value="Venda Base NETSales - Combo Multi - Compra de aparelho 5G" style="whiteSpace=wrap;html=1;aspect=fixed;" parent="1" vertex="1">
          <mxGeometry x="90" y="17.5" width="80" height="80" as="geometry" />
        </mxCell>
        <mxCell id="xgCM8T2wfnTooxRTCJ_P-2" value="" style="edgeStyle=orthogonalEdgeStyle;rounded=0;orthogonalLoop=1;jettySize=auto;html=1;" parent="1" source="xgCM8T2wfnTooxRTCJ_P-3" target="xgCM8T2wfnTooxRTCJ_P-28" edge="1">
          <mxGeometry relative="1" as="geometry" />
        </mxCell>
        <mxCell id="xgCM8T2wfnTooxRTCJ_P-3" value="" style="strokeWidth=2;html=1;shape=mxgraph.flowchart.decision;whiteSpace=wrap;" parent="1" vertex="1">
          <mxGeometry x="340" y="42.5" width="40" height="30" as="geometry" />
        </mxCell>
        <mxCell id="xgCM8T2wfnTooxRTCJ_P-4" value="Verificação elegibilidade 5G SA" style="whiteSpace=wrap;html=1;aspect=fixed;fillColor=#f8cecc;strokeColor=#b85450;" parent="1" vertex="1">
          <mxGeometry x="210" y="17.5" width="80" height="80" as="geometry" />
        </mxCell>
        <UserObject label="Sim" placeholders="1" name="Variable" id="xgCM8T2wfnTooxRTCJ_P-5">
          <mxCell style="text;html=1;strokeColor=none;fillColor=none;align=center;verticalAlign=middle;whiteSpace=wrap;overflow=hidden;" parent="1" vertex="1">
            <mxGeometry x="380" y="30" width="40" height="20" as="geometry" />
          </mxCell>
        </UserObject>
        <mxCell id="xgCM8T2wfnTooxRTCJ_P-6" value="Cliente &lt;br&gt;Presencial" style="shape=umlActor;verticalLabelPosition=bottom;verticalAlign=top;html=1;" parent="1" vertex="1">
          <mxGeometry x="20" y="25" width="30" height="65" as="geometry" />
        </mxCell>
        <mxCell id="xgCM8T2wfnTooxRTCJ_P-7" value="" style="edgeStyle=elbowEdgeStyle;elbow=horizontal;endArrow=classic;html=1;curved=0;rounded=0;endSize=8;startSize=8;entryX=0;entryY=0.5;entryDx=0;entryDy=0;" parent="1" source="xgCM8T2wfnTooxRTCJ_P-6" target="xgCM8T2wfnTooxRTCJ_P-1" edge="1">
          <mxGeometry width="50" height="50" relative="1" as="geometry">
            <mxPoint x="390" y="310" as="sourcePoint" />
            <mxPoint x="440" y="260" as="targetPoint" />
          </mxGeometry>
        </mxCell>
        <mxCell id="xgCM8T2wfnTooxRTCJ_P-8" value="" style="edgeStyle=elbowEdgeStyle;elbow=horizontal;endArrow=classic;html=1;curved=0;rounded=0;endSize=8;startSize=8;entryX=0;entryY=0.5;entryDx=0;entryDy=0;exitX=1;exitY=0.5;exitDx=0;exitDy=0;" parent="1" source="xgCM8T2wfnTooxRTCJ_P-1" target="xgCM8T2wfnTooxRTCJ_P-4" edge="1">
          <mxGeometry width="50" height="50" relative="1" as="geometry">
            <mxPoint x="60" y="68" as="sourcePoint" />
            <mxPoint x="100" y="68" as="targetPoint" />
          </mxGeometry>
        </mxCell>
        <mxCell id="xgCM8T2wfnTooxRTCJ_P-9" value="&lt;h1&gt;Regra elegibilidade&lt;/h1&gt;&lt;p&gt;- Plano Portfólio Elegível 5G SA&amp;nbsp; (mandatório)&lt;/p&gt;&lt;p&gt;- Plano SVA elegível (Ex.: Cloud Gaming) ou&amp;nbsp;&lt;span style=&quot;background-color: initial;&quot;&gt;Aparelho 5G&lt;/span&gt;&lt;/p&gt;&lt;div&gt;- Verificação tecnologia do&amp;nbsp; aparelho do assinante (nova api)&lt;/div&gt;" style="text;html=1;strokeColor=none;fillColor=none;spacing=5;spacingTop=-20;whiteSpace=wrap;overflow=hidden;rounded=0;" parent="1" vertex="1">
          <mxGeometry x="10" y="176" width="340" height="131" as="geometry" />
        </mxCell>
        <mxCell id="xgCM8T2wfnTooxRTCJ_P-10" value="" style="edgeStyle=elbowEdgeStyle;elbow=horizontal;endArrow=classic;html=1;curved=0;rounded=0;endSize=8;startSize=8;entryX=0;entryY=0.5;entryDx=0;entryDy=0;exitX=1;exitY=0.5;exitDx=0;exitDy=0;entryPerimeter=0;" parent="1" source="xgCM8T2wfnTooxRTCJ_P-4" target="xgCM8T2wfnTooxRTCJ_P-3" edge="1">
          <mxGeometry width="50" height="50" relative="1" as="geometry">
            <mxPoint x="180" y="68" as="sourcePoint" />
            <mxPoint x="220" y="68" as="targetPoint" />
          </mxGeometry>
        </mxCell>
        <mxCell id="xgCM8T2wfnTooxRTCJ_P-11" value="" style="edgeStyle=elbowEdgeStyle;elbow=horizontal;endArrow=classic;html=1;curved=0;rounded=0;endSize=8;startSize=8;exitX=1;exitY=0.5;exitDx=0;exitDy=0;exitPerimeter=0;entryX=0;entryY=0.5;entryDx=0;entryDy=0;" parent="1" source="xgCM8T2wfnTooxRTCJ_P-3" target="xgCM8T2wfnTooxRTCJ_P-12" edge="1">
          <mxGeometry width="50" height="50" relative="1" as="geometry">
            <mxPoint x="190" y="78" as="sourcePoint" />
            <mxPoint x="440" y="58" as="targetPoint" />
          </mxGeometry>
        </mxCell>
        <mxCell id="xgCM8T2wfnTooxRTCJ_P-12" value="Pop-up em tela orientando vendedor a vender 5G SA" style="whiteSpace=wrap;html=1;aspect=fixed;fillColor=#f8cecc;strokeColor=#b85450;" parent="1" vertex="1">
          <mxGeometry x="450" y="17.5" width="80" height="80" as="geometry" />
        </mxCell>
        <mxCell id="xgCM8T2wfnTooxRTCJ_P-13" value="" style="strokeWidth=2;html=1;shape=mxgraph.flowchart.decision;whiteSpace=wrap;fillColor=#f8cecc;strokeColor=#b85450;" parent="1" vertex="1">
          <mxGeometry x="600" y="42.5" width="40" height="30" as="geometry" />
        </mxCell>
        <UserObject label="Vendedor seleciona Chip" placeholders="1" name="Variable" id="xgCM8T2wfnTooxRTCJ_P-14">
          <mxCell style="text;html=1;strokeColor=none;fillColor=none;align=center;verticalAlign=middle;whiteSpace=wrap;overflow=hidden;" parent="1" vertex="1">
            <mxGeometry x="545" y="17.5" width="150" height="20" as="geometry" />
          </mxCell>
        </UserObject>
        <mxCell id="xgCM8T2wfnTooxRTCJ_P-15" value="" style="ellipse;html=1;shape=endState;fillColor=#000000;strokeColor=#ff0000;" parent="1" vertex="1">
          <mxGeometry x="730" y="42.5" width="30" height="30" as="geometry" />
        </mxCell>
        <UserObject label="As-Is" placeholders="1" name="Variable" id="xgCM8T2wfnTooxRTCJ_P-16">
          <mxCell style="text;html=1;strokeColor=none;fillColor=none;align=center;verticalAlign=middle;whiteSpace=wrap;overflow=hidden;" parent="1" vertex="1">
            <mxGeometry x="727.5" y="17.5" width="35" height="20" as="geometry" />
          </mxCell>
        </UserObject>
        <UserObject label="4G" placeholders="1" name="Variable" id="xgCM8T2wfnTooxRTCJ_P-17">
          <mxCell style="text;html=1;strokeColor=none;fillColor=none;align=center;verticalAlign=middle;whiteSpace=wrap;overflow=hidden;" parent="1" vertex="1">
            <mxGeometry x="670" y="60" width="40" height="20" as="geometry" />
          </mxCell>
        </UserObject>
        <mxCell id="xgCM8T2wfnTooxRTCJ_P-18" value="" style="edgeStyle=elbowEdgeStyle;elbow=horizontal;endArrow=classic;html=1;curved=0;rounded=0;endSize=8;startSize=8;exitX=1;exitY=0.5;exitDx=0;exitDy=0;entryX=0;entryY=0.5;entryDx=0;entryDy=0;entryPerimeter=0;" parent="1" source="xgCM8T2wfnTooxRTCJ_P-12" target="xgCM8T2wfnTooxRTCJ_P-13" edge="1">
          <mxGeometry width="50" height="50" relative="1" as="geometry">
            <mxPoint x="390" y="68" as="sourcePoint" />
            <mxPoint x="460" y="68" as="targetPoint" />
          </mxGeometry>
        </mxCell>
        <mxCell id="xgCM8T2wfnTooxRTCJ_P-19" value="" style="edgeStyle=elbowEdgeStyle;elbow=horizontal;endArrow=classic;html=1;curved=0;rounded=0;endSize=8;startSize=8;exitX=1;exitY=0.5;exitDx=0;exitDy=0;entryX=0;entryY=0.5;entryDx=0;entryDy=0;exitPerimeter=0;" parent="1" source="xgCM8T2wfnTooxRTCJ_P-13" target="xgCM8T2wfnTooxRTCJ_P-15" edge="1">
          <mxGeometry width="50" height="50" relative="1" as="geometry">
            <mxPoint x="540" y="68" as="sourcePoint" />
            <mxPoint x="610" y="68" as="targetPoint" />
          </mxGeometry>
        </mxCell>
        <mxCell id="xgCM8T2wfnTooxRTCJ_P-20" value="Titular e depen. (caso cliente queira) recebem chip 5G" style="whiteSpace=wrap;html=1;aspect=fixed;" parent="1" vertex="1">
          <mxGeometry x="580" y="130" width="80" height="80" as="geometry" />
        </mxCell>
        <mxCell id="xgCM8T2wfnTooxRTCJ_P-21" value="" style="edgeStyle=elbowEdgeStyle;elbow=horizontal;endArrow=classic;html=1;curved=0;rounded=0;endSize=8;startSize=8;exitX=0.5;exitY=1;exitDx=0;exitDy=0;entryX=0.5;entryY=0;entryDx=0;entryDy=0;exitPerimeter=0;" parent="1" source="xgCM8T2wfnTooxRTCJ_P-13" target="xgCM8T2wfnTooxRTCJ_P-20" edge="1">
          <mxGeometry width="50" height="50" relative="1" as="geometry">
            <mxPoint x="540" y="68" as="sourcePoint" />
            <mxPoint x="610" y="68" as="targetPoint" />
          </mxGeometry>
        </mxCell>
        <UserObject label="5G" placeholders="1" name="Variable" id="xgCM8T2wfnTooxRTCJ_P-22">
          <mxCell style="text;html=1;strokeColor=none;fillColor=none;align=center;verticalAlign=middle;whiteSpace=wrap;overflow=hidden;" parent="1" vertex="1">
            <mxGeometry x="580" y="90" width="40" height="20" as="geometry" />
          </mxCell>
        </UserObject>
        <mxCell id="xgCM8T2wfnTooxRTCJ_P-23" value="" style="edgeStyle=elbowEdgeStyle;elbow=horizontal;endArrow=classic;html=1;curved=0;rounded=0;endSize=8;startSize=8;exitX=0.5;exitY=1;exitDx=0;exitDy=0;entryX=0.5;entryY=0;entryDx=0;entryDy=0;" parent="1" source="xgCM8T2wfnTooxRTCJ_P-20" target="xgCM8T2wfnTooxRTCJ_P-25" edge="1">
          <mxGeometry width="50" height="50" relative="1" as="geometry">
            <mxPoint x="540" y="68" as="sourcePoint" />
            <mxPoint x="620" y="304" as="targetPoint" />
          </mxGeometry>
        </mxCell>
        <mxCell id="xgCM8T2wfnTooxRTCJ_P-24" value="" style="edgeStyle=orthogonalEdgeStyle;rounded=0;orthogonalLoop=1;jettySize=auto;html=1;" parent="1" source="xgCM8T2wfnTooxRTCJ_P-25" target="xgCM8T2wfnTooxRTCJ_P-39" edge="1">
          <mxGeometry relative="1" as="geometry" />
        </mxCell>
        <mxCell id="xgCM8T2wfnTooxRTCJ_P-25" value="Entrega/troca&amp;nbsp; chip 5G" style="whiteSpace=wrap;html=1;aspect=fixed;" parent="1" vertex="1">
          <mxGeometry x="580" y="260" width="80" height="80" as="geometry" />
        </mxCell>
        <mxCell id="xgCM8T2wfnTooxRTCJ_P-26" value="&lt;p style=&quot;line-height: normal; margin: 0pt 0in; text-indent: 0in; direction: ltr; unicode-bidi: embed; word-break: normal;&quot;&gt;Ativa plano com oferta serviço 5G + chip 5G&lt;/p&gt;" style="whiteSpace=wrap;html=1;aspect=fixed;fillColor=#f8cecc;strokeColor=#b85450;" parent="1" vertex="1">
          <mxGeometry x="580" y="370" width="80" height="80" as="geometry" />
        </mxCell>
        <mxCell id="xgCM8T2wfnTooxRTCJ_P-27" value="" style="edgeStyle=orthogonalEdgeStyle;rounded=0;orthogonalLoop=1;jettySize=auto;html=1;" parent="1" source="xgCM8T2wfnTooxRTCJ_P-28" target="xgCM8T2wfnTooxRTCJ_P-32" edge="1">
          <mxGeometry relative="1" as="geometry" />
        </mxCell>
        <mxCell id="xgCM8T2wfnTooxRTCJ_P-28" value="Cliente não elegível solicita chip 5G SA" style="whiteSpace=wrap;html=1;aspect=fixed;" parent="1" vertex="1">
          <mxGeometry x="320" y="130" width="80" height="80" as="geometry" />
        </mxCell>
        <UserObject label="Não" placeholders="1" name="Variable" id="xgCM8T2wfnTooxRTCJ_P-29">
          <mxCell style="text;html=1;strokeColor=none;fillColor=none;align=center;verticalAlign=middle;whiteSpace=wrap;overflow=hidden;" parent="1" vertex="1">
            <mxGeometry x="360" y="80" width="40" height="20" as="geometry" />
          </mxCell>
        </UserObject>
        <mxCell id="xgCM8T2wfnTooxRTCJ_P-30" value="" style="edgeStyle=orthogonalEdgeStyle;rounded=0;orthogonalLoop=1;jettySize=auto;html=1;" parent="1" source="xgCM8T2wfnTooxRTCJ_P-32" target="xgCM8T2wfnTooxRTCJ_P-20" edge="1">
          <mxGeometry relative="1" as="geometry" />
        </mxCell>
        <mxCell id="xgCM8T2wfnTooxRTCJ_P-31" value="" style="edgeStyle=orthogonalEdgeStyle;rounded=0;orthogonalLoop=1;jettySize=auto;html=1;" parent="1" source="xgCM8T2wfnTooxRTCJ_P-32" target="xgCM8T2wfnTooxRTCJ_P-34" edge="1">
          <mxGeometry relative="1" as="geometry" />
        </mxCell>
        <mxCell id="xgCM8T2wfnTooxRTCJ_P-32" value="" style="strokeWidth=2;html=1;shape=mxgraph.flowchart.decision;whiteSpace=wrap;fillColor=#f8cecc;strokeColor=#b85450;" parent="1" vertex="1">
          <mxGeometry x="470" y="155" width="40" height="30" as="geometry" />
        </mxCell>
        <UserObject label="Sim (5G)" placeholders="1" name="Variable" id="xgCM8T2wfnTooxRTCJ_P-33">
          <mxCell style="text;html=1;strokeColor=none;fillColor=none;align=center;verticalAlign=middle;whiteSpace=wrap;overflow=hidden;" parent="1" vertex="1">
            <mxGeometry x="510" y="150" width="50" height="20" as="geometry" />
          </mxCell>
        </UserObject>
        <mxCell id="xgCM8T2wfnTooxRTCJ_P-34" value="" style="ellipse;html=1;shape=endState;fillColor=#000000;strokeColor=#ff0000;" parent="1" vertex="1">
          <mxGeometry x="475" y="220" width="30" height="30" as="geometry" />
        </mxCell>
        <UserObject label="As-Is" placeholders="1" name="Variable" id="xgCM8T2wfnTooxRTCJ_P-35">
          <mxCell style="text;html=1;strokeColor=none;fillColor=none;align=center;verticalAlign=middle;whiteSpace=wrap;overflow=hidden;" parent="1" vertex="1">
            <mxGeometry x="472.5" y="250" width="35" height="20" as="geometry" />
          </mxCell>
        </UserObject>
        <UserObject label="Não (4G)" placeholders="1" name="Variable" id="xgCM8T2wfnTooxRTCJ_P-36">
          <mxCell style="text;html=1;strokeColor=none;fillColor=none;align=center;verticalAlign=middle;whiteSpace=wrap;overflow=hidden;" parent="1" vertex="1">
            <mxGeometry x="430" y="190" width="60" height="20" as="geometry" />
          </mxCell>
        </UserObject>
        <UserObject label="Vendedor seleciona Chip" placeholders="1" name="Variable" id="xgCM8T2wfnTooxRTCJ_P-38">
          <mxCell style="text;html=1;strokeColor=none;fillColor=none;align=center;verticalAlign=middle;whiteSpace=wrap;overflow=hidden;" parent="1" vertex="1">
            <mxGeometry x="415" y="130" width="150" height="20" as="geometry" />
          </mxCell>
        </UserObject>
        <mxCell id="xgCM8T2wfnTooxRTCJ_P-39" value="Adiciona oferta 5G SA" style="whiteSpace=wrap;html=1;aspect=fixed;" parent="1" vertex="1">
          <mxGeometry x="720" y="260" width="80" height="80" as="geometry" />
        </mxCell>
        <mxCell id="xgCM8T2wfnTooxRTCJ_P-40" value="" style="edgeStyle=elbowEdgeStyle;elbow=horizontal;endArrow=classic;html=1;curved=0;rounded=0;endSize=8;startSize=8;exitX=0.5;exitY=1;exitDx=0;exitDy=0;entryX=1;entryY=0.5;entryDx=0;entryDy=0;" parent="1" source="xgCM8T2wfnTooxRTCJ_P-39" target="xgCM8T2wfnTooxRTCJ_P-26" edge="1">
          <mxGeometry width="50" height="50" relative="1" as="geometry">
            <mxPoint x="630" y="220" as="sourcePoint" />
            <mxPoint x="670" y="410" as="targetPoint" />
            <Array as="points">
              <mxPoint x="760" y="380" />
            </Array>
          </mxGeometry>
        </mxCell>
        <mxCell id="2lr42DyKQ2SKbpXxPftm-1" value="Info aparelho assinante" style="ellipse;shape=cloud;whiteSpace=wrap;html=1;fillColor=#f8cecc;strokeColor=#b85450;" parent="1" vertex="1">
          <mxGeometry x="70" y="105" width="120" height="80" as="geometry" />
        </mxCell>
        <mxCell id="2lr42DyKQ2SKbpXxPftm-3" value="" style="endArrow=classic;startArrow=classic;html=1;rounded=0;entryX=0.5;entryY=1;entryDx=0;entryDy=0;exitX=0.96;exitY=0.7;exitDx=0;exitDy=0;exitPerimeter=0;" parent="1" source="2lr42DyKQ2SKbpXxPftm-1" target="xgCM8T2wfnTooxRTCJ_P-4" edge="1">
          <mxGeometry width="50" height="50" relative="1" as="geometry">
            <mxPoint x="390" y="310" as="sourcePoint" />
            <mxPoint x="440" y="260" as="targetPoint" />
            <Array as="points">
              <mxPoint x="250" y="160" />
            </Array>
          </mxGeometry>
        </mxCell>
        <mxCell id="lSW8Ol8LpE-LNySNOqAo-1" value="&lt;h1&gt;Desenvolvimento&lt;/h1&gt;&lt;p&gt;- Nova regra pra identificar marcação de 5G SA no produto SVA (elegibilidade).&lt;/p&gt;&lt;p&gt;- Novo Pop-up com mensagem de orientação ao vendedor&lt;/p&gt;&lt;p&gt;- Novo campo de seleção de chip 4G/5G na jornada para planos móveis (híbrido).&lt;/p&gt;&lt;p style=&quot;border-color: var(--border-color);&quot;&gt;- Novo campo na interface com ativação simplificada - Informar a tecnologia selecionada.&lt;/p&gt;&lt;p style=&quot;border-color: var(--border-color);&quot;&gt;- Alterar interface SOA ao carregar dados da móvel para início da jornada residencial.&lt;/p&gt;&lt;p style=&quot;border-color: var(--border-color);&quot;&gt;- Novo serviço com informação da tecnologia (4G, 5G) deverá ser consumido na jornada de venda base pra ser considerado na regra e elegibilidade.&lt;/p&gt;&lt;p&gt;&lt;br&gt;&lt;/p&gt;&lt;div&gt;&lt;br&gt;&lt;/div&gt;" style="text;html=1;strokeColor=none;fillColor=none;spacing=5;spacingTop=-20;whiteSpace=wrap;overflow=hidden;rounded=0;" parent="1" vertex="1">
          <mxGeometry x="10" y="300" width="560" height="220" as="geometry" />
        </mxCell>
      </root>
    </mxGraphModel>
  </diagram>
</mxfile>
